<svg xmlns="http://www.w3.org/2000/svg" width="118.408" height="151.881" viewBox="0 0 118.408 151.881">
  <g id="Grupo_55924" data-name="Grupo 55924" transform="translate(-769 -3534)">
    <g id="Grupo_55923" data-name="Grupo 55923" transform="translate(769 3534)">
      <path id="Trazado_105467" data-name="Trazado 105467" d="M0,0H75.745V114.24H0Z" transform="translate(0 0)" fill="#ffd947"/>
      <rect id="Rectángulo_30826" data-name="Rectángulo 30826" width="53.452" height="34.211" transform="translate(10.689 11.759)" fill="#edf3f2"/>
      <path id="Trazado_105449" data-name="Trazado 105449" d="M30.434,99.6a23.215,23.215,0,1,1,0-32.831A23.217,23.217,0,0,1,30.434,99.6Z" transform="translate(23.397 -4.376)" fill="#b3009d"/>
      <path id="Trazado_105450" data-name="Trazado 105450" d="M48.394,84.733v29.929H12.673L-6.349,95.64A23.21,23.21,0,0,0,26.475,62.816Z" transform="translate(27.351 -0.422)" fill="#d1a577" opacity="0.65" style="mix-blend-mode: multiply;isolation: isolate"/>
      <path id="Trazado_105451" data-name="Trazado 105451" d="M5.064,91.074a6.264,6.264,0,0,1-8.854,0h0a6.255,6.255,0,0,1,0-8.854L13.056,65.373a6.262,6.262,0,0,1,8.857,0h0a6.268,6.268,0,0,1,0,8.854Z" transform="translate(28.354 0.582)" fill="#f74ae2"/>
      <path id="Trazado_105452" data-name="Trazado 105452" d="M24.4,93.568A23.169,23.169,0,0,1,5.349,100.22L-4.857,90a6.257,6.257,0,0,0,8.852,0L20.837,73.16a6.262,6.262,0,0,0,0-8.852L31.053,74.517A23.17,23.17,0,0,1,24.4,93.568Z" transform="translate(29.423 1.65)" fill="#d1a577" opacity="0.65" style="mix-blend-mode: multiply;isolation: isolate"/>
      <path id="Trazado_105453" data-name="Trazado 105453" d="M14.773,45.924l-2.924,9.437a61.1,61.1,0,0,0-6.313-1.574l1.641-9.75A67.978,67.978,0,0,1,14.773,45.924Z" transform="translate(43.854 -26.498)" fill="#b3009d"/>
      <path id="Trazado_105454" data-name="Trazado 105454" d="M25.939,44.756,24.3,54.506A59.6,59.6,0,0,0,12.781,53.4,60.275,60.275,0,0,0-5.05,56.08l-2.926-9.437a69.878,69.878,0,0,1,20.757-3.124A69.81,69.81,0,0,1,25.939,44.756Z" transform="translate(25.092 -27.217)" fill="#00cca7"/>
      <path id="Trazado_105455" data-name="Trazado 105455" d="M-.567,64.378.565,68.6l3.76-2.126,6.548-22Z" transform="translate(35.38 -25.88)" fill="#604d5d"/>
      <path id="Trazado_105456" data-name="Trazado 105456" d="M7.262,96.65H-3.045A3.057,3.057,0,0,0-6.1,99.707a3.05,3.05,0,0,0,.9,2.169,3.064,3.064,0,0,0,2.159.893H7.262Z" transform="translate(27.697 46.558)" fill="#afafaf"/>
      <path id="Trazado_105457" data-name="Trazado 105457" d="M7.262,89.744H-3.045A3.059,3.059,0,0,0-6.1,92.8a3.04,3.04,0,0,0,.9,2.166,3.064,3.064,0,0,0,2.159.893H7.262Z" transform="translate(27.697 36.969)" fill="#afafaf"/>
      <g id="Grupo_55921" data-name="Grupo 55921" transform="translate(58.627 63.366)">
        <path id="Trazado_105458" data-name="Trazado 105458" d="M26.577,63.223h-.055V67.8h.055a38.027,38.027,0,1,1,0,76.054H9.4v4.581H26.577a42.608,42.608,0,0,0,0-85.217Z" transform="translate(-9.403 -63.223)" fill="#b3009d"/>
      </g>
      <g id="Grupo_55922" data-name="Grupo 55922" transform="translate(58.627 79.859)">
        <path id="Trazado_105459" data-name="Trazado 105459" d="M26.577,70.128h-.055v4.581h.055a21.533,21.533,0,0,1,0,43.066H9.4v4.584H26.577a26.115,26.115,0,1,0,0-52.231Z" transform="translate(-9.403 -70.128)" fill="#3c0061"/>
      </g>
      <path id="Trazado_105460" data-name="Trazado 105460" d="M30.056,65.394l-1.063,4.469A37.881,37.881,0,0,0,16.623,67.8H16.57V63.223h.053A42.373,42.373,0,0,1,30.056,65.394Z" transform="translate(59.176 0.143)" fill="#9b0389" style="mix-blend-mode: multiply;isolation: isolate"/>
      <path id="Trazado_105461" data-name="Trazado 105461" d="M26.208,71.95l-1.08,4.517a21.292,21.292,0,0,0-8.506-1.758H16.57V70.128h.053A25.893,25.893,0,0,1,26.208,71.95Z" transform="translate(59.176 9.731)" fill="#d68d60" style="mix-blend-mode: multiply;isolation: isolate"/>
      <path id="Trazado_105462" data-name="Trazado 105462" d="M-.506,95.581H18.4a5.613,5.613,0,1,1,0,11.226H-.506Z" transform="translate(35.465 45.074)" fill="#d81cc1"/>
      <path id="Trazado_105463" data-name="Trazado 105463" d="M-.506,88.675H18.4a5.613,5.613,0,1,1,0,11.226H-.506Z" transform="translate(35.465 35.485)" fill="#3c0061"/>
      <path id="Trazado_105464" data-name="Trazado 105464" d="M42.788,41.616v3.592h-46.2V75.831h-7.257V41.616Z" transform="translate(21.354 -29.859)" fill="#97abbd" opacity="0.65" style="mix-blend-mode: multiply;isolation: isolate"/>
      <path id="Trazado_105465" data-name="Trazado 105465" d="M-.957,62.489a4.887,4.887,0,0,1-4.887,4.887,4.887,4.887,0,0,1-4.887-4.887A4.888,4.888,0,0,1-5.844,57.6,4.888,4.888,0,0,1-.957,62.489Z" transform="translate(21.267 -7.662)" fill="#edf3f2"/>
      <path id="Trazado_105466" data-name="Trazado 105466" d="M17.394,62.489A4.887,4.887,0,1,1,12.509,57.6,4.885,4.885,0,0,1,17.394,62.489Z" transform="translate(46.748 -7.662)" fill="#4b3c48"/>
    </g>
  </g>
</svg>
